<svg width="1470" height="1189" viewBox="0 0 1470 1189" fill="none" xmlns="http://www.w3.org/2000/svg">
<path d="M267.444 958H138.674V503.346H3.96213V414.198C116.883 414.198 154.523 376.558 162.447 300.287H267.444V958ZM453.563 699.471H320.832L334.699 300.287H739.827V409.245H449.601L443.658 585.56C478.326 548.91 525.872 539.005 574.408 539.005C681.385 539.005 764.59 614.285 764.59 746.026C764.59 887.672 671.48 980.782 537.758 980.782C417.904 980.782 323.803 901.54 318.851 788.619H447.62C452.572 843.098 486.25 875.786 537.758 875.786C609.076 875.786 635.821 826.259 635.821 751.969C635.821 683.623 606.105 643.011 545.682 643.011C499.127 643.011 471.393 662.822 453.563 699.471Z" fill="white"/>
<path d="M998.369 838.15H1469.73V972.378H778.819V777.735H1220.87L998.369 838.15ZM1469.73 437.55H996.288L1215.47 497.282H778.819V302.281H1469.73V437.55Z" fill="white"/>
</svg>
