<svg width="1275" height="396" viewBox="0 0 1275 396" fill="none" xmlns="http://www.w3.org/2000/svg">
<path d="M1249.65 347.643L1249.65 347.495C1249.59 346.408 1248.82 350.444 1247.2 343.967C1245.36 336.616 1242.29 323.75 1228.2 323.75C1222.93 323.75 1222.08 309.659 1229.43 309.659C1239.23 309.659 1238.61 308.434 1240.45 307.208C1243.06 305.478 1239.77 290.863 1244.75 286.99C1250.26 282.702 1250.25 284.54 1251.48 286.99C1253.93 290.054 1250.26 292.505 1252.71 298.018C1254.67 302.43 1259.66 306.187 1261.29 307.208C1262.52 307.004 1265.82 307.208 1269.25 309.659C1272.69 312.109 1277.83 320.687 1267.41 323.137C1259.45 323.137 1260.51 324.695 1259.45 326.2C1255.16 332.327 1255.16 344.58 1249.65 347.643Z" fill="white"/>
<path d="M1248.42 290.054L1249.65 347.643M1249.65 347.643C1255.16 344.58 1255.16 332.327 1259.45 326.2C1260.51 324.695 1259.45 323.137 1267.41 323.137C1277.83 320.687 1272.69 312.109 1269.25 309.659C1265.82 307.208 1262.52 307.004 1261.29 307.208C1259.66 306.187 1254.67 302.43 1252.71 298.018C1250.26 292.505 1253.93 290.054 1251.48 286.99C1250.25 284.54 1250.26 282.702 1244.75 286.99C1239.77 290.863 1243.06 305.478 1240.45 307.208C1238.61 308.434 1239.23 309.659 1229.43 309.659C1222.08 309.659 1222.93 323.75 1228.2 323.75C1242.29 323.75 1245.36 336.616 1247.2 343.967C1248.88 350.692 1249.65 346.082 1249.65 347.643Z" stroke="white" stroke-width="1.22531"/>
<path d="M13.8767 344C7.92943 344 3.96459 339.639 3.96459 332.898C3.96459 324.176 9.91185 321.797 9.91185 311.885V102.145C9.91185 89.8537 -0.000254654 87.8713 -0.000254654 79.1487C-0.000254654 72.8049 4.36107 68.4436 15.4626 65.2717C36.8728 58.5315 71.3669 50.6018 84.8473 50.6018C91.5876 50.6018 96.3454 54.1702 96.3454 61.7034C96.3454 70.426 93.1735 72.8049 93.1735 82.717V311.885C93.1735 321.797 99.1207 324.176 99.1207 332.898C99.1207 339.639 95.1559 344 89.2087 344C76.5212 344 63.4372 343.207 50.7497 343.207C38.4587 343.207 25.3747 344 13.8767 344ZM222.155 349.154C165.854 349.154 121.844 323.383 121.844 286.906C121.844 263.91 136.118 248.447 158.321 248.447C209.864 248.447 189.247 323.383 239.204 323.383C256.252 323.383 271.319 312.678 271.319 286.906C271.319 257.963 242.772 224.262 142.065 217.522C137.704 217.125 135.721 213.557 136.514 209.988L167.043 54.1702C192.022 60.9104 217.793 64.4788 242.375 64.4788C288.368 64.4788 309.381 53.7737 314.535 53.7737C318.5 53.7737 318.897 57.7385 318.104 62.0999C307.795 118.004 243.168 132.278 174.18 121.969L170.215 141.793C293.918 148.137 323.258 194.129 323.258 250.826C323.258 307.523 282.42 349.154 222.155 349.154ZM620.987 86.2854V311.885C620.987 321.797 626.934 324.176 626.934 332.898C626.934 339.639 622.969 344 617.022 344C604.334 344 591.25 343.207 578.563 343.207C566.272 343.207 553.188 344 541.69 344C535.743 344 531.778 339.639 531.778 332.898C531.778 324.176 537.725 321.797 537.725 311.885V118.004L484.596 321.797C480.631 336.467 471.116 344 458.825 344C446.93 344 437.018 336.467 433.053 321.797L375.96 118.004V290.871C375.96 322.193 387.854 326.951 387.854 335.674C387.854 340.828 384.682 344 379.528 344C374.374 344 369.616 343.604 364.461 343.604C358.911 343.604 353.36 344 348.206 344C343.051 344 340.276 340.828 340.276 335.674C340.276 326.951 352.17 322.193 352.17 290.871V86.2854C352.17 76.3733 346.223 73.9944 346.223 65.2717C346.223 58.5315 350.188 54.1702 356.135 54.1702C371.598 54.1702 387.061 54.9631 402.524 54.9631C417.194 54.9631 432.657 54.1702 446.534 54.1702C452.481 54.1702 456.446 58.5315 456.446 65.2717C456.446 71.219 451.291 86.6819 453.67 96.594L454.067 97.7834L486.579 217.918L518.694 97.7834C521.866 85.8889 516.711 71.6155 516.711 65.2717C516.711 58.5315 520.676 54.1702 526.623 54.1702C540.5 54.1702 555.963 54.9631 570.633 54.9631C586.096 54.9631 601.559 54.1702 617.022 54.1702C622.969 54.1702 626.934 58.5315 626.934 65.2717C626.934 73.9944 620.987 76.3733 620.987 86.2854ZM693.246 124.348C667.474 124.348 646.857 103.731 646.857 78.3557C646.857 52.9807 667.474 32.3636 693.246 32.3636C718.621 32.3636 739.238 52.9807 739.238 78.3557C739.238 103.731 718.621 124.348 693.246 124.348ZM663.906 344C656.769 344 652.012 340.035 652.012 333.691C652.012 326.555 655.976 324.572 655.976 310.695V192.543C655.976 171.529 648.443 170.34 648.443 162.807C648.443 156.463 652.408 154.481 661.924 152.498L710.691 143.379C715.449 142.586 721 141.397 724.568 141.397C731.308 141.397 734.48 144.965 734.48 155.274V310.695C734.48 324.572 738.445 326.555 738.445 333.691C738.445 340.035 733.687 344 726.551 344C716.242 344 705.537 343.604 695.228 343.604C684.92 343.604 674.215 344 663.906 344ZM770.752 344C763.616 344 758.858 340.035 758.858 333.691C758.858 326.555 762.823 324.572 762.823 310.695V85.8889C762.823 64.4788 755.289 63.2893 755.289 55.7561C755.289 49.8088 758.461 46.637 768.77 45.4475C801.282 41.8792 828.242 38.3108 831.414 38.3108C838.551 38.3108 841.326 42.2757 841.326 52.1877V310.695C841.326 324.572 845.291 326.555 845.291 333.691C845.291 340.035 840.533 344 833.397 344C823.088 344 812.383 343.604 802.075 343.604C791.766 343.604 781.061 344 770.752 344ZM1030.26 254.395C1038.99 254.395 1043.74 260.342 1043.74 271.047C1043.74 315.453 1010.84 347.172 957.31 347.172C899.027 347.172 860.965 308.316 860.965 244.879C860.965 185.803 901.803 140.207 958.896 140.207C1001.32 140.207 1034.62 167.565 1037.8 217.918L946.209 247.654C953.346 278.184 968.808 300.387 989.822 300.387C1012.42 300.387 1015.59 284.131 1015.59 270.254C1015.59 259.549 1022.33 254.395 1030.26 254.395ZM951.76 158.445C945.416 158.445 942.244 180.649 942.244 208.402C942.244 215.936 942.64 223.072 943.433 229.813L963.258 223.469C962.465 187.785 958.896 158.445 951.76 158.445ZM1131.89 347.965C1102.95 347.965 1101.76 339.639 1085.9 339.639C1074.4 339.639 1070.44 345.982 1063.3 345.982C1058.15 345.982 1053.39 343.207 1054.58 334.881C1056.96 319.022 1058.94 300.783 1060.13 282.545C1060.53 276.598 1064.09 271.84 1071.23 271.84C1077.97 271.84 1080.35 275.012 1083.52 281.752C1097.4 312.678 1109.69 326.555 1129.12 326.555C1140.22 326.555 1147.75 320.211 1147.75 309.506C1147.75 296.818 1141.41 291.664 1115.64 277.391L1100.97 269.461C1068.06 251.619 1056.56 232.984 1056.56 209.592C1056.56 172.719 1087.09 138.225 1147.36 138.225C1186.61 138.225 1213.57 154.481 1213.57 180.649C1213.57 198.49 1203.26 209.195 1184.23 209.195C1139.03 209.195 1160.04 159.635 1133.08 159.635C1122.77 159.635 1117.22 165.582 1117.22 175.494C1117.22 186.596 1125.55 194.922 1160.84 213.953L1175.51 221.883C1208.41 239.725 1217.93 255.981 1217.93 283.734C1217.93 318.229 1190.18 347.965 1131.89 347.965Z" fill="white"/>
</svg>
